<?xml version="1.0" encoding="UTF-8"?>
<svg xmlns="http://www.w3.org/2000/svg" viewBox="0 0 32 32" width="32" height="32">
  <!-- Background -->
  <rect x="0" y="0" width="32" height="32" rx="6" fill="#3b82f6"/>
  
  <!-- Letter P -->
  <path d="M10 8 L10 24 L14 24 L14 18 L18 18 C20 18 22 16 22 13 C22 10 20 8 18 8 L10 8 Z" fill="white"/>
  <path d="M14 12 L18 12 C18.5 12 19 12.5 19 13 C19 13.5 18.5 14 18 14 L14 14 L14 12 Z" fill="#3b82f6"/>
  
  <!-- Data elements -->
  <rect x="23" y="10" width="5" height="1.5" rx="0.7" fill="white" opacity="0.7"/>
  <rect x="23" y="13" width="5" height="1.5" rx="0.7" fill="white" opacity="0.9"/>
  <rect x="23" y="16" width="5" height="1.5" rx="0.7" fill="white" opacity="0.5"/>
  <rect x="23" y="19" width="5" height="1.5" rx="0.7" fill="white" opacity="0.8"/>
</svg>
