<svg xmlns="http://www.w3.org/2000/svg" viewBox="0 0 100 100" width="100" height="100">
  <!-- Background gradient -->
  <defs>
    <linearGradient id="bg-gradient" x1="0%" y1="0%" x2="100%" y2="100%">
      <stop offset="0%" stop-color="#3b82f6" />
      <stop offset="100%" stop-color="#8b5cf6" />
    </linearGradient>
  </defs>
  
  <!-- Background shape -->
  <rect x="5" y="5" width="90" height="90" rx="20" fill="url(#bg-gradient)" />
  
  <!-- Letter P -->
  <path d="M30 25 L30 75 L40 75 L40 60 L55 60 C62 60 67 55 67 45 C67 35 62 30 55 30 L30 25 Z" fill="white" />
  <path d="M40 35 L55 35 C57 35 59 38 59 45 C59 52 57 55 55 55 L40 55 L40 35 Z" fill="url(#bg-gradient)" />
  
  <!-- Data elements -->
  <rect x="70" y="30" width="15" height="5" rx="2" fill="white" opacity="0.7" />
  <rect x="70" y="40" width="15" height="5" rx="2" fill="white" opacity="0.9" />
  <rect x="70" y="50" width="15" height="5" rx="2" fill="white" opacity="0.5" />
  <rect x="70" y="60" width="15" height="5" rx="2" fill="white" opacity="0.8" />
</svg>
